# xmcd
#
# Track frame offsets: 
#        150
#        14495
#        32528
#        56210
#        77409
#        95235
#        121485
#        139309
#        153211
#        172484
#        196573
#        219573
#        232086
#        255065
#
# Disc length: 4260 seconds
#
# Revision: 4
# Processed by: cddbd v1.5.2PL0 Copyright (c) Steve Scherf et al.
# Submitted via: ExactAudioCopy v0.99pb4
#
DISCID=be10a20e
DTITLE=Philip Sayce - Peace Machine
DYEAR=2005
DGENRE=Rock
TTITLE0=One Foot In The Grave
TTITLE1=Save Me From Myself
TTITLE2=Slip Away
TTITLE3=Powerful Thing
TTITLE4=Angels Live Inside
TTITLE5=Dream Away
TTITLE6=Sweet Misery
TTITLE7=Blood On Your Hands
TTITLE8=Cinamon Girl
TTITLE9=Over My Head
TTITLE10=Alchemy
TTITLE11=All I Want
TTITLE12=Morning Star
TTITLE13=Peace Machine
EXTD=\n
EXTT0=
EXTT1=
EXTT2=
EXTT3=
EXTT4=
EXTT5=
EXTT6=
EXTT7=
EXTT8=
EXTT9=
EXTT10=
EXTT11=
EXTT12=
EXTT13=
PLAYORDER=
